<svg xmlns="http://www.w3.org/2000/svg" width="20.385" height="17.964" viewBox="0 0 20.385 17.964">
  <path id="favorite-svgrepo-com_1_" data-name="favorite-svgrepo-com (1)" d="M4.451,13.908,11.4,20.44c.24.225.359.337.5.365a.5.5,0,0,0,.193,0c.141-.028.261-.14.5-.365l6.953-6.531A5.2,5.2,0,0,0,20.1,6.926l-.309-.4a4.314,4.314,0,0,0-7.3.786.539.539,0,0,1-.973,0,4.314,4.314,0,0,0-7.3-.786l-.309.4A5.2,5.2,0,0,0,4.451,13.908Z" transform="translate(-1.808 -3.85)" fill="#fff" stroke="#fff" stroke-width="2"/>
</svg>
